<svg xmlns="http://www.w3.org/2000/svg" width="23.082" height="23.082" viewBox="0 0 23.082 23.082"><defs><style>.a{fill:#fff;stroke:#fff;stroke-width:0.1px;}</style></defs><g transform="translate(0.05 0.05)"><path class="a" d="M21.3,2.089H4.179v.15L3.964,1.5A2.1,2.1,0,0,0,1.959,0H.522a.522.522,0,0,0,0,1.045H1.959a1.049,1.049,0,0,1,1,.752L6.213,12.944,4.547,15.026a1.682,1.682,0,0,0,1.314,2.733h14.51a.522.522,0,0,0,0-1.045H5.861a.638.638,0,0,1-.5-1.036l1.679-2.1H17.287a2.1,2.1,0,0,0,1.891-1.2l3.645-7.746a1.7,1.7,0,0,0,.16-.716V3.772A1.684,1.684,0,0,0,21.3,2.089Zm.638,1.83a.639.639,0,0,1-.061.271l-3.645,7.745a1.05,1.05,0,0,1-.946.6H7.182L4.44,3.134H21.3a.639.639,0,0,1,.638.638Z"/><path class="a" d="M87.422,384a2.089,2.089,0,1,0,2.089,2.089A2.091,2.091,0,0,0,87.422,384Zm0,3.134a1.045,1.045,0,1,1,1.045-1.045A1.046,1.046,0,0,1,87.422,387.134Z" transform="translate(-81.154 -365.196)"/><path class="a" d="M343.422,384a2.089,2.089,0,1,0,2.089,2.089A2.091,2.091,0,0,0,343.422,384Zm0,3.134a1.045,1.045,0,1,1,1.045-1.045A1.046,1.046,0,0,1,343.422,387.134Z" transform="translate(-324.619 -365.196)"/></g></svg>