<svg xmlns="http://www.w3.org/2000/svg" width="25.697" height="28.741" viewBox="0 0 25.697 28.741"><defs><style>.a{fill:#fff;}</style></defs><g transform="translate(-85.249 -474)"><path class="a" d="M18.744,4.888,14.825.581A2,2,0,0,0,12,.587a1.951,1.951,0,0,0-.5.862A2,2,0,0,0,8.372,2.491a2,2,0,0,0-2.621.181,1.972,1.972,0,0,0-.5.841L3.4,1.666A1.995,1.995,0,0,0,.582,4.487l7.1,7.1-4.208.661a2.335,2.335,0,0,0-1.995,2.3,1.565,1.565,0,0,0,1.563,1.563h9.827a5.694,5.694,0,0,0,4.053-1.679l1.639-1.639a5.725,5.725,0,0,0,.187-7.9Zm-.923,7.164-1.639,1.639a4.659,4.659,0,0,1-3.316,1.374H3.038a.521.521,0,0,1-.521-.521,1.289,1.289,0,0,1,1.108-1.269l5.227-.821a.521.521,0,0,0,.288-.883l-7.82-7.82A.953.953,0,0,1,2.667,2.4L7.881,7.617a.521.521,0,1,0,.736-.738L6.488,4.75A.953.953,0,0,1,7.835,3.4l2.13,2.13a.521.521,0,1,0,.736-.738L9.614,3.708A.953.953,0,0,1,10.962,2.36l1.092,1.092s0,0,0,0h0a0,0,0,0,1,0,0,.521.521,0,0,0,.726-.747l-.045-.045A.953.953,0,0,1,14.072,1.3l3.9,4.289a4.684,4.684,0,0,1-.153,6.463Z" transform="translate(96.638 477.044) rotate(45)"/><path class="a" d="M8.959,2.765A4.685,4.685,0,1,0,2.765,8.96a.522.522,0,0,0,.429-.951A3.643,3.643,0,1,1,8.009,3.194a.521.521,0,1,0,.949-.429Z" transform="translate(95.872 474) rotate(45)"/></g></svg>