<?xml version="1.0" encoding="utf-8"?>
<!-- Generator: Adobe Illustrator 25.0.0, SVG Export Plug-In . SVG Version: 6.00 Build 0)  -->
<svg version="1.1" id="Camada_1" xmlns="http://www.w3.org/2000/svg" xmlns:xlink="http://www.w3.org/1999/xlink" x="0px" y="0px"
	 viewBox="0 0 512 512" style="enable-background:new 0 0 512 512;" xml:space="preserve">
<path d="M264,56c0,4.4-3.6,8-8,8s-8-3.6-8-8s3.6-8,8-8S264,51.6,264,56z" fill="#FF6D00"/>
<path d="M170.7,486.4c0,14.1,11.5,25.6,25.6,25.6h119.5c14.1,0,25.6-11.5,25.6-25.6V196.3c-0.1-17.8-6.3-35-17.6-48.6
	c0.3-0.8,0.5-1.7,0.5-2.6V111c0-4.7-3.8-8.5-8.5-8.5h-8.5V25.6c0-14.1-11.5-25.6-25.6-25.6h-51.2c-14.1,0-25.6,11.5-25.6,25.6v76.8
	h-8.5c-4.7,0-8.5,3.8-8.5,8.5V145c0,0.9,0.2,1.7,0.5,2.6c-11.3,13.7-17.5,30.9-17.6,48.6L170.7,486.4L170.7,486.4z M315.7,494.9
	H196.3c-4.7,0-8.5-3.8-8.5-8.5V221.9h59.6c0,59.5,3.1,115.8,35.6,166.7c2.6,3.8,7.8,4.9,11.7,2.4c3.9-2.5,5.1-7.7,2.7-11.6
	c-30.1-47.1-33-98.8-32.9-157.5h59.9v264.5C324.3,491.1,320.4,494.9,315.7,494.9z M324.3,204.8h-59.8c0-1.2,0-2.3,0-3.5
	c0-4.5,0-9.1,0.1-13.6h8.5c4.7,0,8.5-3.8,8.5-8.5v-25.6h24.6c11.5,11.2,18,26.6,18.1,42.7L324.3,204.8L324.3,204.8z M247.5,170.7
	v-17.1h17.1v17.1H247.5z M221.9,25.6c0-4.7,3.8-8.5,8.5-8.5h51.2c4.7,0,8.5,3.8,8.5,8.5v76.8h-68.3L221.9,25.6L221.9,25.6z
	 M204.8,119.5h102.4v17.1H204.8V119.5z M205.8,153.6h24.6v25.6c0,4.7,3.8,8.5,8.5,8.5h8.5c0,4.5,0,9.1,0,13.5v3.6h-59.7v-8.5
	C187.8,180.2,194.3,164.8,205.8,153.6z" fill="#FF6D00"/>
</svg>
