<?xml version="1.0" encoding="utf-8"?>
<!-- Generator: Adobe Illustrator 25.0.0, SVG Export Plug-In . SVG Version: 6.00 Build 0)  -->
<svg version="1.1" id="Capa_1" xmlns="http://www.w3.org/2000/svg" xmlns:xlink="http://www.w3.org/1999/xlink" x="0px" y="0px"
	 viewBox="0 0 512 512" style="enable-background:new 0 0 512 512;" xml:space="preserve">
<g>
	<path d="M256,428.9c-13.7,0-24.8,11.1-24.8,24.8s11.1,24.8,24.8,24.8c13.7,0,24.8-11.1,24.8-24.8S269.7,428.9,256,428.9z
		 M256,461.9c-4.6,0-8.3-3.7-8.3-8.3c0-4.6,3.7-8.3,8.3-8.3s8.3,3.7,8.3,8.3C264.3,458.2,260.6,461.9,256,461.9z" fill="#FF6D00"/>
	<path d="M409.5,0h-307C83.8,0,68.7,15.2,68.7,33.8v444.3c0,18.7,15.2,33.8,33.8,33.8h307c18.7,0,33.8-15.2,33.8-33.8V33.8
		C443.3,15.2,428.2,0,409.5,0z M426.8,478.2c0,9.5-7.8,17.3-17.3,17.3h-307c-9.5,0-17.3-7.8-17.3-17.3V33.8
		c0-9.5,7.8-17.3,17.3-17.3h307c9.5,0,17.3,7.8,17.3,17.3V478.2L426.8,478.2z" fill="#FF6D00"/>
	<path d="M391,44H121c-4.6,0-8.3,3.7-8.3,8.3v351.8c0,4.6,3.7,8.3,8.3,8.3h270c4.6,0,8.3-3.7,8.3-8.3V52.3
		C399.3,47.7,395.6,44,391,44z M382.8,395.8H129.2V60.6h253.5L382.8,395.8L382.8,395.8z" fill="#FF6D00"/>
</g>
</svg>
