<?xml version="1.0" encoding="utf-8"?>
<!-- Generator: Adobe Illustrator 25.0.0, SVG Export Plug-In . SVG Version: 6.00 Build 0)  -->
<svg version="1.1" id="Capa_1" xmlns="http://www.w3.org/2000/svg" xmlns:xlink="http://www.w3.org/1999/xlink" x="0px" y="0px"
	 viewBox="0 0 512 512" style="enable-background:new 0 0 512 512;" xml:space="preserve">
<g>
	<g>
		<g>
			<path d="M133.1,231.5c-39.7-11.8-70.3,16.8-71.6,18.2c-4.3,2.7-5.6,8.3-2.9,12.6c2.7,4.3,8.3,5.6,12.6,2.9c1-0.7,1.9-1.5,2.6-2.5
				c14.6-13.1,34.7-18.3,53.8-13.8c4.8,1.6,9.9-1.1,11.5-5.8c0-0.1,0.1-0.2,0.1-0.3C140.6,237.9,137.9,232.9,133.1,231.5z" fill="#FF6D00"/>
		</g>
	</g>
	<g>
		<g>
			<path d="M245.5,203.1v-0.2c-39.7-11.8-70.3,16.8-71.6,18.2c-3.6,3.5-3.8,9.2-0.3,12.9c3.5,3.6,9.2,3.8,12.9,0.3
				c14.6-13.2,34.7-18.4,53.8-13.8c4.8,1.4,9.9-1.3,11.3-6.1C253.1,209.6,250.4,204.6,245.5,203.1z" fill="#FF6D00"/>
		</g>
	</g>
	<g>
		<g>
			<path d="M242.7,304.9c-0.7-2.2-2.2-4.1-4.2-5.3c-2.1-1.2-4.6-1.6-6.9-1L119.3,327c-4.9,1.1-8,6-6.8,10.9c0,0,0,0,0,0
				c6.3,24.8,30.4,41.5,59.9,41.5c6.5,0,12.9-0.8,19.2-2.5C227.6,367.8,250.4,335.6,242.7,304.9z M187.2,359.5L187.2,359.5
				c-4.8,1.2-9.7,1.8-14.7,1.8c-15.4,0.7-30-6.6-38.7-19.2l92.1-23.3C225.1,336.7,209.5,353.9,187.2,359.5z" fill="#FF6D00"/>
		</g>
	</g>
	<g>
		<g>
			<path d="M505.4,145.6C505.4,145.6,505.4,145.5,505.4,145.6l-242.8-67c-4.9-1.3-9.9,1.5-11.2,6.4c0,0,0,0,0,0l-4,14.3L6.8,160.2
				c-4.8,1.3-7.8,6.2-6.6,11l40.6,160.6c18.2,72.2,91.4,116,163.5,97.8c23.3-5.9,44.6-17.8,61.7-34.7
				c63.2,39.4,146.5,20.1,185.9-43.1c6.9-11,12.1-22.9,15.6-35.4l44.1-159.6C513,152,510.2,147,505.4,145.6z M200.4,411.8
				C138,427.7,74.5,390,58.7,327.6c0-0.1-0.1-0.2-0.1-0.3L20.1,175.6l226.8-57.3l38.4,151.8C301,332.7,263,396.1,200.4,411.8z
				 M450.1,311.6c-17.2,62.2-81.5,98.6-143.7,81.4c-9.8-2.7-19.2-6.7-27.9-11.8c8.9-11.5,15.8-24.2,20.7-37.9l75.3,20.9
				c0.8,0.1,1.6,0.1,2.5,0c4.2,0.2,8-2.6,9.1-6.7c8.4-30.4-13.8-63.2-49.5-72.9c-10-2.8-20.4-3.5-30.7-2.1c-0.6-5.7-1.6-11.4-3-17
				l-15.3-59.7c9.3,4.2,19.4,6.5,29.6,6.6c6.2,0,12.3-0.8,18.2-2.5c4.9-1.4,7.8-6.5,6.4-11.4c-1.4-4.9-6.5-7.8-11.4-6.4
				c-17.2,4.1-35.4-0.1-49.1-11.3l-17.9-70.7l3.3-11.9l225.1,62.2L450.1,311.6z M304.3,325.7c1.7-8.2,2.6-16.5,2.7-24.9
				c8.3-1.4,16.8-0.9,24.9,1.4c22.2,6.1,37.4,23.6,37.9,41.5L304.3,325.7z" fill="#FF6D00"/>
		</g>
	</g>
	<g>
		<g>
			<path d="M453.7,229.6c-1.3-4.9-6.3-7.7-11.2-6.4c-19.2,4.2-39.3-1.4-53.6-14.9c-3.6-3.5-9.3-3.5-12.9,0c-3.5,3.6-3.5,9.3,0,12.9
				c14.4,13.5,33.3,21.3,53,22c6.2,0,12.3-0.8,18.2-2.5C452.2,239.5,455,234.5,453.7,229.6z" fill="#FF6D00"/>
		</g>
	</g>
</g>
</svg>
