<?xml version="1.0" encoding="utf-8"?>
<!-- Generator: Adobe Illustrator 25.0.0, SVG Export Plug-In . SVG Version: 6.00 Build 0)  -->
<svg version="1.1" id="Capa_1" xmlns="http://www.w3.org/2000/svg" xmlns:xlink="http://www.w3.org/1999/xlink" x="0px" y="0px"
	 viewBox="0 0 512 512" style="enable-background:new 0 0 512 512;" xml:space="preserve">
<g>
	<g>
		<g>
			<path d="M511.7,320.4c-1.3-29.3-6.4-61.9-14-92.5c-7.7-29.3-17.2-56.8-28.7-77.8c-44.6-78.4-93.1-66.3-151.1-51
				c-18.5,4.5-38.3,9.6-58.7,11.5h-6.4c-20.4-1.9-40.2-7-58.7-11.5C136.1,84.5,87.6,71.7,43,150.8c-11.5,21-21.7,48.5-28.7,77.8
				c-7.7,30.6-12.8,63.1-14,92.5c-1.3,32.5,1.9,56.1,8.9,72.7c7,15.3,17.2,24.9,30.6,28.7c12.1,3.2,26.1,1.9,40.8-4.5
				c24.9-10.2,53.6-31.9,81.6-58c19.8-19.1,56.8-28.7,93.7-28.7c37,0,74,9.6,93.7,28.7c28.1,26.1,56.8,47.8,81.6,58
				c14.7,5.7,28.7,7.7,40.8,4.5c12.8-3.8,23.6-12.8,30.6-29.3C509.8,377.2,513,353.6,511.7,320.4z M481.1,384.2
				c-3.8,8.9-8.9,14-15.3,15.9c-7,1.9-15.9,0.6-26.1-3.2c-22.3-8.9-48.5-28.7-74-52.9c-24.2-24.2-67-36.3-109.7-36.3
				s-85.5,12.1-110.3,35.1c-26.1,24.2-52.3,44.6-74,52.9c-10.2,3.8-19.1,5.7-26.1,3.2c-6.4-1.9-11.5-7-15.3-15.9
				c-5.1-12.1-7.7-31.9-6.4-61.2c1.3-27.4,5.7-58.7,13.4-88c7-27.4,15.9-52.9,26.8-72.1c35.1-63.1,75.9-52.9,124.4-40.2
				c19.8,5.1,40.2,10.2,62.5,12.1c0.6,0,0.6,0,1.3,0h7c0.6,0,0.6,0,1.3,0c23-1.9,43.4-7,63.1-12.1c48.5-12.1,89.3-23,124.4,40.2
				c10.8,19.1,19.8,44,26.8,72.1c7,29.3,12.1,59.9,13.4,88C489.4,351,486.9,370.8,481.1,384.2z" fill="#FF6D00"/>
		</g>
	</g>
	<g>
		<g>
			<path d="M197.3,196.1c-6.4-5.7-14-10.2-23-10.8c-0.6-8.3-4.5-16.6-10.2-22.3l-0.6-0.6c-7-7-15.9-10.8-26.1-10.8
				c-10.2,0-19.8,4.5-26.1,10.8c-5.7,5.7-10.2,14-10.8,23c-8.9,0.6-16.6,4.5-23,10.2l-0.6,0.6c-7,7-10.8,15.9-10.8,26.1
				c0,10.2,4.5,19.8,10.8,26.1s14,10.2,23.6,10.8c0.6,8.9,4.5,17.2,10.8,23c7,7,15.9,10.8,26.1,10.8s19.8-4.5,26.1-10.8
				c5.7-6.4,10.2-14,10.8-23c8.9-0.6,17.2-4.5,23-10.8c7-7,10.8-15.9,10.8-26.1C208.2,212,203.7,202.4,197.3,196.1z M181.4,231.8
				c-2.6,2.6-5.7,3.8-9.6,3.8h-8.9c-6.4,0-12.1,5.1-12.1,12.1v8.3c0,3.8-1.3,7-3.8,9.6c-2.6,2.6-5.7,3.8-9.6,3.8
				c-3.8,0-7-1.3-9.6-3.8c-2.6-2.6-3.8-5.7-3.8-9.6v-8.9c0-6.4-5.1-12.1-12.1-12.1H103c-3.8,0-7-1.3-9.6-3.8
				c-1.9-1.9-3.8-5.1-3.8-8.9c0-3.8,1.3-7,3.8-9.6c0,0,0,0,0.6-0.6c2.6-1.9,5.7-3.2,8.9-3.2h8.9c6.4,0,12.1-5.1,12.1-12.1v-8.9
				c0-3.8,1.3-7,3.8-9.6c2.6-2.6,5.7-3.8,9.6-3.8c3.8,0,7,1.3,9.6,3.8c0,0,0,0,0.6,0.6c1.9,2.6,3.2,5.7,3.2,8.9v8.9
				c0,6.4,5.1,12.1,12.1,12.1h8.9c3.8,0,7,1.3,9.6,3.8c2.6,2.6,3.8,5.7,3.8,9.6C185.2,226,183.9,229.2,181.4,231.8z" fill="#FF6D00"/>
		</g>
	</g>
	<g>
		<g>
			<circle cx="367" cy="176.9" r="22.3" fill="#FF6D00"/>
		</g>
	</g>
	<g>
		<g>
			<circle cx="367" cy="267.5" r="22.3" fill="#FF6D00"/>
		</g>
	</g>
	<g>
		<g>
			<circle cx="321.7" cy="222.2" r="22.3" fill="#FF6D00"/>
		</g>
	</g>
	<g>
		<g>
			<circle cx="412.2" cy="222.2" r="22.3" fill="#FF6D00"/>
		</g>
	</g>
</g>
</svg>
