<?xml version="1.0" encoding="utf-8"?>
<!-- Generator: Adobe Illustrator 25.0.0, SVG Export Plug-In . SVG Version: 6.00 Build 0)  -->
<svg version="1.1" id="Capa_1" xmlns="http://www.w3.org/2000/svg" xmlns:xlink="http://www.w3.org/1999/xlink" x="0px" y="0px"
	 viewBox="0 0 512 512" style="enable-background:new 0 0 512 512;" xml:space="preserve">
<g>
	<g>
		<path d="M503.5,93.9h-34.1V51.2c0-4.7-3.8-8.5-8.5-8.6c-0.2,0-0.5,0-0.7,0l-22.3,1.9C383.9,49,331,61.9,281,82.8l-25,10.4
			l-24.9-10.3c-50-20.9-103-33.8-156.9-38.3l-22.3-1.9c-4.7-0.4-8.8,3.1-9.2,7.8c0,0.2,0,0.5,0,0.7v42.7H8.5c-4.7,0-8.5,3.8-8.5,8.5
			v358.4c0,4.7,3.8,8.5,8.5,8.5h494.9c4.7,0,8.5-3.8,8.5-8.5V102.4C512,97.7,508.2,93.9,503.5,93.9z M17.1,452.3V110.9h25.6v298.7
			c0,4.4,3.4,8.2,7.8,8.5l23,2c6.3,0.5,12.5,1.2,18.8,1.9c2.1,0.2,4.2,0.6,6.3,0.9c4.1,0.6,8.3,1.1,12.4,1.8
			c2.5,0.4,4.9,0.9,7.4,1.3c3.7,0.7,7.5,1.3,11.2,2c2.6,0.5,5.1,1.1,7.7,1.6c3.6,0.8,7.2,1.6,10.8,2.4c2.6,0.6,5.2,1.3,7.7,1.9
			c3.5,0.9,7,1.8,10.5,2.8c2.6,0.7,5.1,1.5,7.7,2.2c3.5,1,7,2.1,10.4,3.2c2.5,0.8,5.1,1.6,7.6,2.5c3.5,1.2,7,2.4,10.4,3.7
			c2.5,0.9,4.9,1.8,7.4,2.7c1.1,0.4,2.1,0.9,3.2,1.2L17.1,452.3L17.1,452.3z M247.5,448l-15.7-6.6c-50-20.9-102.9-33.9-156.9-38.4
			l-15.1-1.3V60.5l13,1.1c52.2,4.3,103.5,16.8,151.8,37l22.9,9.5V448z M264.5,448V108.1l22.9-9.5c48.3-20.2,99.6-32.7,151.8-37
			l13-1.1v341.3l-14,1.1c-54,4.5-107,17.4-157,38.2L264.5,448z M494.9,452.3H299.3c1.2-0.5,2.3-0.9,3.5-1.4c2.6-1,5.1-1.9,7.7-2.8
			c3.3-1.2,6.7-2.4,10.1-3.5c2.6-0.9,5.3-1.7,7.9-2.6c3.4-1.1,6.8-2.1,10.1-3.1c2.7-0.8,5.3-1.6,8-2.3c3.4-1,6.8-1.9,10.3-2.7
			c2.6-0.7,5.3-1.3,8-2c3.5-0.9,7.1-1.6,10.7-2.4c2.6-0.6,5.1-1.1,7.7-1.6c3.8-0.7,7.5-1.4,11.3-2.1c2.4-0.4,4.9-0.9,7.3-1.3
			c4.2-0.7,8.4-1.2,12.6-1.8c2-0.3,4-0.6,6.1-0.9c6.3-0.8,12.5-1.4,18.9-1.9l21.9-1.8c4.4-0.4,7.8-4.1,7.8-8.5V110.9h25.6
			L494.9,452.3L494.9,452.3z" fill="#FF6D00"/>
	</g>
</g>
</svg>
