<?xml version="1.0" encoding="utf-8"?>
<!-- Generator: Adobe Illustrator 25.0.0, SVG Export Plug-In . SVG Version: 6.00 Build 0)  -->
<svg version="1.1" id="Camada_1" xmlns="http://www.w3.org/2000/svg" xmlns:xlink="http://www.w3.org/1999/xlink" x="0px" y="0px"
	 viewBox="0 0 512 512" style="enable-background:new 0 0 512 512;" xml:space="preserve">
<style type="text/css">
	.st0{fill:#FF6D00;}
</style>
<path class="st0" d="M447.1,148.4h-90.9V96.6C356.2,43.3,313,0,259.6,0S163,43.2,163,96.6v51.9H66.4c-6.1,0-11.1,5-11.1,11.1v252.7
	C55.4,467.4,100,512,155,512h203.3c55.1-0.1,99.7-44.7,99.7-99.7V159.5C458.1,153.4,453.2,148.4,447.1,148.4z M185.2,96.6
	c0-41.1,33.3-74.4,74.4-74.4S334,55.5,334,96.6v51.9H185.2V96.6z M436,412.3c0,42.8-34.7,77.5-77.6,77.6H155.1
	c-42.8,0-77.5-34.8-77.6-77.6V170.6H163v124.1c0,6.1,5,11.1,11.1,11.1s11.1-5,11.1-11.1V170.6H334v124.1c0,6.1,5,11.1,11.1,11.1
	s11.1-5,11.1-11.1V170.6H436V412.3z"/>
</svg>
