<?xml version="1.0" encoding="utf-8"?>
<!-- Generator: Adobe Illustrator 25.0.0, SVG Export Plug-In . SVG Version: 6.00 Build 0)  -->
<svg version="1.1" id="Camada_1" xmlns="http://www.w3.org/2000/svg" xmlns:xlink="http://www.w3.org/1999/xlink" x="0px" y="0px"
	 viewBox="0 0 512 512" style="enable-background:new 0 0 512 512;" xml:space="preserve">
<path d="M400.2,9.3c-6.2-7.5-16.1-10.8-25.6-8.6s-16.8,9.6-19,19.1l-46.7,202.1H136.5c-18.8,0-34.1,15.3-34.1,34.1v247.5
	c0,4.7,3.8,8.5,8.5,8.5h25.6c4.5,0,8.2-3.4,8.5-7.9l14-188.4h151.9l56.3,190.2c1.1,3.6,4.4,6.1,8.2,6.1H401c2.6,0,5-1.2,6.7-3.2
	c1.6-2,2.2-4.7,1.7-7.2l-50.8-228.7l46.9-242.5C407,22.9,405,15.2,400.2,9.3z M128.6,494.9h-9.1V281.6h24.9L128.6,494.9z
	 M160.3,298.7l1.3-17.1h139.3l5.1,17.1H160.3z M381.8,494.9l-56.3-190.1l-6.9-23.2H343l47.4,213.3L381.8,494.9L381.8,494.9z
	 M388.8,27.1l-45.9,237.4H119.5V256c0-9.4,7.6-17.1,17.1-17.1h179.2c4,0,7.4-2.7,8.3-6.6l48.2-208.7c1.1-4.4,5.5-7.2,10-6.3
	C386.7,18.3,389.6,22.6,388.8,27.1z" fill="#FF6D00"/>
</svg>
