<svg id="Camada_1" data-name="Camada 1" xmlns="http://www.w3.org/2000/svg" viewBox="0 0 32 32"><defs><style>.cls-1{fill:#fff;}.cls-2{fill:#1877f3;fill-rule:evenodd;}</style></defs><g id="App-_-Partners-_-32px-_Alternative_-_-Facebook" data-name="App-/-Partners-/-32px-(Alternative)-/-Facebook"><g id="Facebook"><circle id="Oval" class="cls-1" cx="16" cy="16" r="16"/><path id="Combined-Shape" class="cls-2" d="M16,0a16.11,16.11,0,0,1,2.5,32h0v-.17l.1,0V20.75h3.63v-.06h.07l.7-4.6H18.6v-3a2.3,2.3,0,0,1,2.6-2.48h2V6.71h-.07V6.6a24.77,24.77,0,0,0-3.58-.31c-3.65,0-6,2.23-6,6.26h0V16.1H9.44v4.65H13.5V32A16.11,16.11,0,0,1,16,0Z"/></g></g></svg>