<?xml version="1.0" encoding="utf-8"?>
<!-- Generator: Adobe Illustrator 25.0.1, SVG Export Plug-In . SVG Version: 6.00 Build 0)  -->
<svg version="1.1" id="Camada_1" xmlns="http://www.w3.org/2000/svg" xmlns:xlink="http://www.w3.org/1999/xlink" x="0px" y="0px"
	 viewBox="0 0 32 32" style="enable-background:new 0 0 32 32;" xml:space="preserve">
<style type="text/css">
	.st0{fill:url(#SVGID_1_);}
	.st1{fill:url(#SVGID_2_);}
	.st2{fill:#FFFFFF;}
</style>
<g>
	
		<radialGradient id="SVGID_1_" cx="-2091.5786" cy="1155.6212" r="15.997" gradientTransform="matrix(0 -1.9825 1.8382 0 -2115.7383 -4112.1074)" gradientUnits="userSpaceOnUse">
		<stop  offset="0" style="stop-color:#FFDD55"/>
		<stop  offset="0.1" style="stop-color:#FFDD55"/>
		<stop  offset="0.5" style="stop-color:#FF543E"/>
		<stop  offset="1" style="stop-color:#C837AB"/>
	</radialGradient>
	<path class="st0" d="M16,0C9.3,0,7.4,0,7,0C5.6,0.2,4.8,0.4,3.8,0.8C3.1,1.2,2.6,1.6,2,2.2c-1,1-1.6,2.3-1.9,3.9C0,6.8,0,7,0,10.8
		c0,1.3,0,3,0,5.2c0,6.7,0,8.6,0,9c0.1,1.3,0.3,2.2,0.8,3.1c0.8,1.8,2.5,3.1,4.4,3.6C5.9,31.9,6.6,32,7.5,32c0.4,0,4.4,0,8.5,0
		s8.1,0,8.5,0c1.1-0.1,1.7-0.1,2.4-0.3c1.9-0.5,3.5-1.8,4.4-3.6c0.4-0.9,0.7-1.8,0.8-3c0-0.3,0-4.7,0-9.1s0-8.8,0-9.1
		c-0.1-1.3-0.3-2.1-0.8-3.1c-0.4-0.7-0.8-1.3-1.4-1.9c-1.1-1-2.4-1.6-3.9-1.8C25.1,0,24.9,0,21.1,0H16z"/>
	
		<radialGradient id="SVGID_2_" cx="1950.1665" cy="304.8348" r="15.997" gradientTransform="matrix(0.1734 0.869 -3.5706 0.7174 744.993 -1911.0533)" gradientUnits="userSpaceOnUse">
		<stop  offset="0" style="stop-color:#3771C8"/>
		<stop  offset="0.128" style="stop-color:#3771C8"/>
		<stop  offset="1" style="stop-color:#6600FF;stop-opacity:0"/>
	</radialGradient>
	<path class="st1" d="M16,0C9.3,0,7.4,0,7,0C5.6,0.2,4.8,0.4,3.8,0.8C3.1,1.2,2.6,1.6,2,2.2c-1,1-1.6,2.3-1.9,3.9C0,6.8,0,7,0,10.8
		c0,1.3,0,3,0,5.2c0,6.7,0,8.6,0,9c0.1,1.3,0.3,2.2,0.8,3.1c0.8,1.8,2.5,3.1,4.4,3.6C5.9,31.9,6.6,32,7.5,32c0.4,0,4.4,0,8.5,0
		s8.1,0,8.5,0c1.1-0.1,1.7-0.1,2.4-0.3c1.9-0.5,3.5-1.8,4.4-3.6c0.4-0.9,0.7-1.8,0.8-3c0-0.3,0-4.7,0-9.1s0-8.8,0-9.1
		c-0.1-1.3-0.3-2.1-0.8-3.1c-0.4-0.7-0.8-1.3-1.4-1.9c-1.1-1-2.4-1.6-3.9-1.8C25.1,0,24.9,0,21.1,0H16z"/>
	<path class="st2" d="M16,4.2c-3.2,0-3.6,0-4.9,0.1C9.9,4.3,9,4.5,8.3,4.8C7.5,5.1,6.8,5.5,6.2,6.2C5.5,6.8,5.1,7.5,4.8,8.3
		C4.5,9,4.3,9.9,4.3,11.1c-0.1,1.3-0.1,1.7-0.1,4.9s0,3.6,0.1,4.9c0.1,1.3,0.3,2.1,0.5,2.9c0.3,0.8,0.7,1.4,1.4,2.1s1.3,1.1,2.1,1.4
		c0.8,0.3,1.6,0.5,2.9,0.5c1.3,0.1,1.7,0.1,4.9,0.1s3.6,0,4.9-0.1c1.3-0.1,2.1-0.3,2.9-0.5c0.8-0.3,1.4-0.7,2.1-1.4
		c0.7-0.7,1.1-1.3,1.4-2.1c0.3-0.8,0.5-1.6,0.5-2.9c0.1-1.3,0.1-1.7,0.1-4.9s0-3.6-0.1-4.9c-0.1-1.3-0.3-2.1-0.5-2.9
		c-0.3-0.8-0.7-1.4-1.4-2.1c-0.7-0.7-1.3-1.1-2.1-1.4s-1.6-0.5-2.9-0.5C19.5,4.2,19.1,4.2,16,4.2L16,4.2z M14.9,6.3
		c0.3,0,0.7,0,1.1,0c3.2,0,3.5,0,4.8,0.1c1.2,0.1,1.8,0.2,2.2,0.4c0.6,0.2,0.9,0.5,1.4,0.9c0.3,0.4,0.6,0.8,0.8,1.3
		c0.2,0.4,0.4,1,0.4,2.2c0.1,1.2,0.1,1.6,0.1,4.8s0,3.5-0.1,4.8c-0.1,1.2-0.2,1.8-0.4,2.2c-0.2,0.6-0.5,0.9-0.9,1.4
		c-0.4,0.4-0.8,0.7-1.4,0.9c-0.4,0.2-1,0.4-2.2,0.4c-1.2,0.1-1.6,0.1-4.8,0.1s-3.5,0-4.8-0.1c-1.2-0.1-1.8-0.2-2.2-0.4
		c-0.6-0.2-0.9-0.5-1.4-0.9C7.3,23.9,7,23.5,6.8,23c-0.2-0.4-0.4-1-0.4-2.2c-0.1-1.2-0.1-1.6-0.1-4.8s0-3.5,0.1-4.8
		c0-1.1,0.2-1.8,0.4-2.2C7,8.5,7.3,8.1,7.7,7.7C8.1,7.3,8.5,7,9,6.8c0.4-0.2,1-0.4,2.2-0.4C12.3,6.3,12.7,6.3,14.9,6.3L14.9,6.3z
		 M22.2,8.3c-0.8,0-1.4,0.6-1.4,1.4c0,0.8,0.6,1.4,1.4,1.4s1.4-0.6,1.4-1.4C23.6,8.9,23,8.3,22.2,8.3L22.2,8.3z M16,9.9
		c-3.4,0-6.1,2.7-6.1,6.1s2.7,6.1,6.1,6.1S22,19.4,22,16S19.2,9.9,16,9.9L16,9.9z M16,12.1c2.2,0,3.9,1.8,3.9,3.9
		c0,2.2-1.8,3.9-3.9,3.9c-2.2,0-3.9-1.8-3.9-3.9C12.1,13.8,13.8,12.1,16,12.1z"/>
</g>
</svg>
