<?xml version="1.0" encoding="utf-8"?>
<!-- Generator: Adobe Illustrator 25.0.1, SVG Export Plug-In . SVG Version: 6.00 Build 0)  -->
<svg version="1.1" id="Layer_1" xmlns="http://www.w3.org/2000/svg" xmlns:xlink="http://www.w3.org/1999/xlink" x="0px" y="0px"
	 viewBox="0 0 32 32" style="enable-background:new 0 0 32 32;" xml:space="preserve">
<style type="text/css">
	.st0{fill:#FFFFFF;}
	.st1{fill:#24D741;}
</style>
<g>
	<path class="st0" d="M0,31.9c0.9-2.8,1.9-5.5,2.8-8.2C-3.3,13.1,4.2,1.1,14.4,0.1C24.1-0.9,32,6.1,32,15.5c0,10-9.6,18.3-20.5,14.9
		c-0.8-0.3-1.8-1.1-2.8-1.1c-1.3-0.1-3.1,0.9-4.4,1.3C2.8,31.1,1.5,31.6,0,31.9z M9,26.3c8.8,5.3,19.3-0.6,20.2-9.4
		C30,9.1,23.7,2.1,15.3,2.7C5.6,3.4-0.2,15,5.7,23.4c-0.5,1.4-1,2.9-1.5,4.4C5.9,27.4,7.4,26.8,9,26.3z"/>
	<path class="st1" d="M4.3,27.8c0.5-1.5,1-3,1.5-4.4c-5.9-8.4-0.1-20,9.5-20.7C23.7,2.1,30,9.1,29.2,17C28.3,25.7,17.8,31.7,9,26.3
		C7.4,26.8,5.9,27.4,4.3,27.8z M8.7,13.9c1.4,4,7.2,9.3,11.5,9.5c2,0.1,4.4-1,4.3-3.8c-1.2-0.9-2.6-1.5-4.1-2.1
		c-0.7,0.7-1.3,1.6-2.1,2.1c-2.6-1.1-4.5-2.9-5.7-5.4c2.3-1.3,0.9-4.1,0-6.1C8.8,7,7.9,11.5,8.7,13.9z"/>
	<path class="st0" d="M12.5,8.1c0.9,1.9,2.3,4.8,0,6.1c1.2,2.5,3.2,4.3,5.7,5.4c0.9-0.6,1.4-1.4,2.1-2.1c1.5,0.6,2.9,1.3,4.1,2.1
		c0.1,2.8-2.2,3.9-4.3,3.8c-4.3-0.2-10.1-5.6-11.5-9.5C7.9,11.5,8.8,7,12.5,8.1z"/>
</g>
</svg>
